<?xml version="1.0" encoding="UTF-8" standalone="no"?>
<!DOCTYPE svg PUBLIC "-//W3C//DTD SVG 1.1//EN" "http://www.w3.org/Graphics/SVG/1.1/DTD/svg11.dtd">
<svg width="100%" height="100%" viewBox="0 0 68 68" version="1.1" xmlns="http://www.w3.org/2000/svg" xmlns:xlink="http://www.w3.org/1999/xlink" xml:space="preserve" xmlns:serif="http://www.serif.com/" style="fill-rule:evenodd;clip-rule:evenodd;stroke-linejoin:round;stroke-miterlimit:1.41421;">
    <g transform="matrix(1,0,0,1,-1706.31,-124.75)">
        <g transform="matrix(1,0,0,0.84875,0,0)">
            <g transform="matrix(0.829174,0,0,0.976935,41.9672,-739.235)">
                <path d="M2088.1,947.577C2088.1,969.906 2069.99,988.009 2047.66,988.009C2025.33,988.009 2007.23,969.906 2007.23,947.577C2007.23,925.244 2025.33,907.138 2047.66,907.138C2069.99,907.138 2088.1,925.244 2088.1,947.577ZM2063.03,930.364L2024.69,930.364L2024.69,939.67L2063.02,939.67L2063.02,955.489L2032.3,955.489L2032.3,952.236L2059.77,952.236L2059.77,942.926L2033.93,942.926C2027.89,942.926 2023,947.826 2023,953.854C2023,959.899 2027.89,964.787 2033.93,964.787L2072.32,964.787L2072.32,939.658C2072.32,934.534 2068.17,930.372 2063.03,930.364Z" style="fill:rgb(157,157,157);fill-rule:nonzero;"/>
            </g>
        </g>
    </g>
</svg>
