<?xml version="1.0" encoding="UTF-8" standalone="no"?>
<!DOCTYPE svg PUBLIC "-//W3C//DTD SVG 1.1//EN" "http://www.w3.org/Graphics/SVG/1.1/DTD/svg11.dtd">
<svg width="100%" height="100%" viewBox="0 0 67 68" version="1.1" xmlns="http://www.w3.org/2000/svg" xmlns:xlink="http://www.w3.org/1999/xlink" xml:space="preserve" xmlns:serif="http://www.serif.com/" style="fill-rule:evenodd;clip-rule:evenodd;stroke-linejoin:round;stroke-miterlimit:1.41421;">
    <g transform="matrix(1,0,0,1,-1623.86,-124.75)">
        <g transform="matrix(1,0,0,0.84875,0,-4.82459e-14)">
            <g id="Fill-20" transform="matrix(1,0,0,1.1782,36.4899,-929.951)">
                <path d="M1645.23,981.101L1596.34,981.101C1591.39,981.101 1587.37,977.074 1587.37,972.105L1587.37,923.042C1587.37,918.073 1591.39,914.046 1596.34,914.046L1645.23,914.046C1650.18,914.046 1654.19,918.073 1654.19,923.042L1654.19,972.105C1654.19,977.074 1650.18,981.101 1645.23,981.101ZM1624.52,948.189L1622.43,948.189L1622.43,961.71L1624.52,961.71C1628.23,961.71 1631.26,958.667 1631.26,954.949C1631.26,951.231 1628.23,948.189 1624.52,948.189ZM1619.28,933.437L1612.48,933.437L1612.48,961.709L1619.28,961.709L1619.28,933.437ZM1623.19,933.437L1622.43,933.437L1622.43,945.136L1623.19,945.136C1626.39,945.136 1629.02,942.504 1629.02,939.286C1629.02,936.069 1626.39,933.437 1623.19,933.437Z" style="fill:rgb(157,157,157);"/>
            </g>
        </g>
    </g>
</svg>
